<?xml version="1.0" encoding="iso-8859-1"?>
<!-- Generator: Adobe Illustrator 19.0.0, SVG Export Plug-In . SVG Version: 6.00 Build 0)  -->
<svg version="1.1" id="Layer_1" xmlns="http://www.w3.org/2000/svg" xmlns:xlink="http://www.w3.org/1999/xlink" x="0px" y="0px"
	 viewBox="0 0 512 512" style="enable-background:new 0 0 512 512;" xml:space="preserve">
<g>
	<polyline style="fill:#7FCDEE;" points="7.344,76.288 7.344,52.157 64,52.157 64,76.288 24.131,76.288 	"/>
	<polyline style="fill:#7FCDEE;" points="448,76.288 448,52.157 504.656,52.157 504.656,76.288 463.738,76.288 	"/>
	<rect x="39.847" y="316.265" style="fill:#7FCDEE;" width="200.142" height="144.105"/>
</g>
<polygon style="fill:#29ABE2;" points="103.892,460.368 39.847,460.368 39.847,316.265 175.943,316.265 "/>
<rect x="272.01" y="316.265" style="fill:#7FCDEE;" width="200.142" height="144.105"/>
<polygon style="fill:#29ABE2;" points="336.057,460.368 272.012,460.368 272.012,316.265 408.108,316.265 "/>
<path d="M264.143,308.396v15.499h-16.284v-15.499H31.978v159.841h215.879v-80.342c0-4.197,3.652-8.143,8.143-8.143
	s8.143,3.946,8.143,8.143v80.342h215.879V308.396H264.143z M232.12,452.499H47.716V324.134H232.12V452.499z M256,364.014
	c-2.858,0-5.599,0.533-8.143,1.495v-25.877h16.284v25.877C261.599,364.548,258.858,364.014,256,364.014z M464.284,452.499H279.88
	V324.134h184.404V452.499z"/>
<rect y="100.417" width="15.738" height="159.475"/>
<polygon style="fill:#FBB03B;" points="24.131,323.895 0,323.895 0,268.288 15.738,268.288 15.738,308.157 24.131,308.157 "/>
<polygon points="15.738,92.026 0,92.026 0,43.763 71.344,43.763 71.344,83.632 24.131,83.632 24.131,67.895 55.607,67.895 
	55.607,59.501 15.738,59.501 "/>
<rect x="496.262" y="100.417" width="15.738" height="159.475"/>
<polygon style="fill:#FBB03B;" points="512,323.895 487.869,323.895 487.869,308.157 496.262,308.157 496.262,268.288 512,268.288 
	"/>
<polygon points="512,92.026 496.262,92.026 496.262,59.501 456.393,59.501 456.393,67.895 487.869,67.895 487.869,83.632 
	440.656,83.632 440.656,43.763 512,43.763 "/>
<g>
	<polygon style="fill:#FFFFFF;" points="119.607,436.157 64,436.157 64,396.288 79.738,396.288 79.738,420.419 119.607,420.419 	"/>
	<rect x="136.393" y="420.417" style="fill:#FFFFFF;" width="31.475" height="15.738"/>
	<rect x="183.607" y="420.417" style="fill:#FFFFFF;" width="16.787" height="15.738"/>
	<polygon style="fill:#FFFFFF;" points="352.525,436.157 295.869,436.157 295.869,396.288 311.607,396.288 311.607,420.419 
		352.525,420.419 	"/>
	<rect x="368.262" y="420.417" style="fill:#FFFFFF;" width="31.475" height="15.738"/>
	<rect x="416.525" y="420.417" style="fill:#FFFFFF;" width="15.738" height="15.738"/>
</g>
<g>
</g>
<g>
</g>
<g>
</g>
<g>
</g>
<g>
</g>
<g>
</g>
<g>
</g>
<g>
</g>
<g>
</g>
<g>
</g>
<g>
</g>
<g>
</g>
<g>
</g>
<g>
</g>
<g>
</g>
</svg>
