<?xml version="1.0" encoding="iso-8859-1"?>
<!-- Generator: Adobe Illustrator 19.0.0, SVG Export Plug-In . SVG Version: 6.00 Build 0)  -->
<svg version="1.1" id="Layer_1" fill="current" xmlns="http://www.w3.org/2000/svg" xmlns:xlink="http://www.w3.org/1999/xlink" x="0px" y="0px"
	 viewBox="0 0 503.467 503.467" style="enable-background:new 0 0 503.467 503.467;" xml:space="preserve">
<g transform="translate(1 1)">
	<g>
		<path d="M421.4,169.667v-8.533h-34.305c-2-50.141-21.527-94.756-51.028-124.431v-0.155l-0.602-0.451
			c-8.693-8.645-18.237-16.001-28.447-21.824C297.726,8.93,287.994,5.01,278.04,2.413l-10.24-2.56V0.34
			C262.206-0.542,256.511-1,250.733-1C177.929-1,117.96,71.19,114.372,161.133H80.067v8.533c0,109.207,72.19,199.16,162.133,204.542
			v68.579c-39.076,0.476-128,4.575-128,29.813c0,27.307,104.107,29.867,136.533,29.867s136.533-2.56,136.533-29.867
			c0-25.238-88.924-29.336-128-29.813v-68.576C349.21,368.877,421.4,279.701,421.4,169.667z M370.2,169.667
			c0,41.608-13.047,79.483-34.133,107.216V62.45C357.153,90.184,370.2,128.058,370.2,169.667z M319,44.227V295.52
			c-10.317,9.296-21.814,16.551-34.133,21.307V22.893C296.813,27.16,308.76,34.84,319,44.227z M250.733,16.067
			c5.792,0,11.489,0.548,17.067,1.585v304.029c-5.578,1.037-11.275,1.585-17.067,1.585c-65.707,0-119.467-69.12-119.467-153.6
			S185.027,16.067,250.733,16.067z M97.133,178.2h17.239c3.588,89.943,63.557,162.133,136.361,162.133
			c5.777,0,11.473-0.458,17.067-1.34v0.487l11.093-2.56c19.627-5.12,38.4-16.213,54.613-31.573l2.56-2.56v-0.155
			c29.501-29.675,49.028-74.29,51.028-124.431h17.239c-3.413,99.84-70.827,179.2-153.6,179.2S100.547,278.04,97.133,178.2z
			 M366.787,472.6c-13.653,5.12-52.053,12.8-116.053,12.8s-103.253-7.68-116.053-12.8c13.026-4.885,49.372-12.095,107.52-12.747
			v8.48c0,5.12,3.413,8.533,8.533,8.533s8.533-3.413,8.533-8.533v-8.48C317.488,460.505,354.574,467.715,366.787,472.6z"/>
	</g>
</g>
<g>
</g>
<g>
</g>
<g>
</g>
<g>
</g>
<g>
</g>
<g>
</g>
<g>
</g>
<g>
</g>
<g>
</g>
<g>
</g>
<g>
</g>
<g>
</g>
<g>
</g>
<g>
</g>
<g>
</g>
</svg>
