<?xml version="1.0"?><svg fill="#12B886" xmlns="http://www.w3.org/2000/svg"  viewBox="0 0 50 50" width="50px" height="50px">    <path d="M45.184,13.969l-0.262-0.478L26.248,39.392c-0.568,0.784-1.727,0.812-2.332,0.056L12.358,25H8l3-4h5.842l8.039,10.049 L41.082,8.566C36.2,3.786,29.495,1.433,22.644,2.116C11.822,3.194,3.188,11.83,2.115,22.653C1.427,29.586,3.841,36.37,8.737,41.265 c4.346,4.345,10.179,6.733,16.284,6.733c0.773,0,1.551-0.039,2.33-0.116c10.934-1.087,19.578-9.826,20.554-20.78 C48.314,22.508,47.373,17.967,45.184,13.969z"/></svg>